<mxfile host="app.diagrams.net" agent="Mozilla/5.0 (Windows NT 10.0; Win64; x64) AppleWebKit/537.36 (KHTML, like Gecko) Chrome/131.0.0.0 Safari/537.36" version="25.0.3">
  <diagram name="Trang-1" id="_Gy02h3S8PTMjMVLU8HQ">
    <mxGraphModel grid="1" page="1" gridSize="10" guides="1" tooltips="1" connect="1" arrows="1" fold="1" pageScale="1" pageWidth="827" pageHeight="1169" math="0" shadow="0">
      <root>
        <mxCell id="0" />
        <mxCell id="1" parent="0" />
        <mxCell id="FwLdbJFnqaRyB9DGUgpO-11" value="&amp;nbsp;Khách hàng&amp;nbsp;" style="swimlane;fontStyle=0;childLayout=stackLayout;horizontal=1;startSize=30;horizontalStack=0;resizeParent=1;resizeParentMax=0;resizeLast=0;collapsible=1;marginBottom=0;whiteSpace=wrap;html=1;" vertex="1" parent="1">
          <mxGeometry x="60" y="-970" width="140" height="250" as="geometry" />
        </mxCell>
        <mxCell id="FwLdbJFnqaRyB9DGUgpO-13" value="ID khách hàng&lt;div&gt;Tên khách hàng&lt;div&gt;Liên Hệ&lt;/div&gt;&lt;div&gt;Địa Chỉ&lt;/div&gt;&lt;div&gt;Email&lt;/div&gt;&lt;div&gt;Số điện thoại&lt;/div&gt;&lt;div&gt;mật khẩu&lt;/div&gt;&lt;/div&gt;&lt;div&gt;nhân viên&lt;/div&gt;" style="text;strokeColor=none;fillColor=none;align=left;verticalAlign=middle;spacingLeft=4;spacingRight=4;overflow=hidden;points=[[0,0.5],[1,0.5]];portConstraint=eastwest;rotatable=0;whiteSpace=wrap;html=1;" vertex="1" parent="FwLdbJFnqaRyB9DGUgpO-11">
          <mxGeometry y="30" width="140" height="220" as="geometry" />
        </mxCell>
        <mxCell id="FwLdbJFnqaRyB9DGUgpO-15" value="Cá Koi" style="swimlane;fontStyle=0;childLayout=stackLayout;horizontal=1;startSize=30;horizontalStack=0;resizeParent=1;resizeParentMax=0;resizeLast=0;collapsible=1;marginBottom=0;whiteSpace=wrap;html=1;" vertex="1" parent="1">
          <mxGeometry x="780" y="-450" width="140" height="150" as="geometry" />
        </mxCell>
        <mxCell id="FwLdbJFnqaRyB9DGUgpO-16" value="ID&lt;div&gt;Tên&lt;/div&gt;&lt;div&gt;Nguồn gốc&lt;/div&gt;&lt;div&gt;Tuổi&lt;/div&gt;&lt;div&gt;Kích Thước&lt;/div&gt;" style="text;strokeColor=none;fillColor=none;align=left;verticalAlign=middle;spacingLeft=4;spacingRight=4;overflow=hidden;points=[[0,0.5],[1,0.5]];portConstraint=eastwest;rotatable=0;whiteSpace=wrap;html=1;" vertex="1" parent="FwLdbJFnqaRyB9DGUgpO-15">
          <mxGeometry y="30" width="140" height="120" as="geometry" />
        </mxCell>
        <mxCell id="FwLdbJFnqaRyB9DGUgpO-19" value="Thông tin kí gửi" style="swimlane;fontStyle=0;childLayout=stackLayout;horizontal=1;startSize=30;horizontalStack=0;resizeParent=1;resizeParentMax=0;resizeLast=0;collapsible=1;marginBottom=0;whiteSpace=wrap;html=1;" vertex="1" parent="1">
          <mxGeometry x="-705" y="-1960" width="140" height="150" as="geometry" />
        </mxCell>
        <mxCell id="FwLdbJFnqaRyB9DGUgpO-20" value="ID&lt;div&gt;ID&amp;nbsp; Khách hàng&lt;/div&gt;&lt;div&gt;ID Cá Koi&lt;/div&gt;&lt;div&gt;Thời Gian&lt;/div&gt;&lt;div&gt;Phí&lt;/div&gt;" style="text;strokeColor=none;fillColor=none;align=left;verticalAlign=middle;spacingLeft=4;spacingRight=4;overflow=hidden;points=[[0,0.5],[1,0.5]];portConstraint=eastwest;rotatable=0;whiteSpace=wrap;html=1;" vertex="1" parent="FwLdbJFnqaRyB9DGUgpO-19">
          <mxGeometry y="30" width="140" height="120" as="geometry" />
        </mxCell>
        <mxCell id="FwLdbJFnqaRyB9DGUgpO-25" value="Báo cáo chăm sóc" style="swimlane;fontStyle=0;childLayout=stackLayout;horizontal=1;startSize=30;horizontalStack=0;resizeParent=1;resizeParentMax=0;resizeLast=0;collapsible=1;marginBottom=0;whiteSpace=wrap;html=1;" vertex="1" parent="1">
          <mxGeometry x="400" y="-792" width="150" height="150" as="geometry" />
        </mxCell>
        <mxCell id="FwLdbJFnqaRyB9DGUgpO-26" value="&lt;div&gt;ID&lt;/div&gt;&lt;div&gt;IdCaKoi&lt;/div&gt;&lt;div&gt;NgayChamSoc&lt;/div&gt;&lt;div&gt;LoaiChamSoc&amp;nbsp;&amp;nbsp;-- Ví dụ: cho ăn, thay nước, kiểm tra sức khỏe&lt;/div&gt;&lt;div&gt;MoTa&lt;/div&gt;&lt;div&gt;&lt;br&gt;&lt;/div&gt;" style="text;strokeColor=none;fillColor=none;align=left;verticalAlign=middle;spacingLeft=4;spacingRight=4;overflow=hidden;points=[[0,0.5],[1,0.5]];portConstraint=eastwest;rotatable=0;whiteSpace=wrap;html=1;" vertex="1" parent="FwLdbJFnqaRyB9DGUgpO-25">
          <mxGeometry y="30" width="150" height="120" as="geometry" />
        </mxCell>
        <mxCell id="FwLdbJFnqaRyB9DGUgpO-28" value="&lt;table&gt;&lt;tbody&gt;&lt;tr&gt;&lt;td&gt;Danh mục sản phẩm&lt;/td&gt;&lt;/tr&gt;&lt;/tbody&gt;&lt;/table&gt;&lt;table&gt;&lt;tbody&gt;&lt;tr&gt;&lt;td&gt;&lt;/td&gt;&lt;/tr&gt;&lt;/tbody&gt;&lt;/table&gt;" style="swimlane;fontStyle=0;childLayout=stackLayout;horizontal=1;startSize=30;horizontalStack=0;resizeParent=1;resizeParentMax=0;resizeLast=0;collapsible=1;marginBottom=0;whiteSpace=wrap;html=1;" vertex="1" parent="1">
          <mxGeometry x="-970" y="-1524" width="140" height="90" as="geometry" />
        </mxCell>
        <mxCell id="FwLdbJFnqaRyB9DGUgpO-34" value="ID Danh mục&lt;div&gt;Tên danh mục&lt;/div&gt;&lt;div&gt;Mô tả&lt;/div&gt;" style="text;html=1;align=center;verticalAlign=middle;resizable=0;points=[];autosize=1;strokeColor=none;fillColor=none;" vertex="1" parent="FwLdbJFnqaRyB9DGUgpO-28">
          <mxGeometry y="30" width="140" height="60" as="geometry" />
        </mxCell>
        <mxCell id="FwLdbJFnqaRyB9DGUgpO-35" value="Sản Phẩm( Cá Koi )" style="swimlane;fontStyle=0;childLayout=stackLayout;horizontal=1;startSize=30;horizontalStack=0;resizeParent=1;resizeParentMax=0;resizeLast=0;collapsible=1;marginBottom=0;whiteSpace=wrap;html=1;" vertex="1" parent="1">
          <mxGeometry x="-710" y="-1584" width="140" height="310" as="geometry" />
        </mxCell>
        <mxCell id="FwLdbJFnqaRyB9DGUgpO-36" value="ID Sản Phẩm&lt;div&gt;Tên sản phẩm&lt;/div&gt;&lt;div&gt;ID Danh Mục&lt;/div&gt;&lt;div&gt;Nguồn gốc&lt;/div&gt;&lt;div&gt;Kích thước&lt;/div&gt;&lt;div&gt;Màu sắc&lt;/div&gt;&lt;div&gt;&lt;span style=&quot;background-color: initial;&quot;&gt;Giá&lt;/span&gt;&lt;/div&gt;&lt;div&gt;&lt;br&gt;&lt;/div&gt;" style="text;strokeColor=none;fillColor=none;align=left;verticalAlign=middle;spacingLeft=4;spacingRight=4;overflow=hidden;points=[[0,0.5],[1,0.5]];portConstraint=eastwest;rotatable=0;whiteSpace=wrap;html=1;" vertex="1" parent="FwLdbJFnqaRyB9DGUgpO-35">
          <mxGeometry y="30" width="140" height="280" as="geometry" />
        </mxCell>
        <mxCell id="FwLdbJFnqaRyB9DGUgpO-39" value="Đơn hàng" style="swimlane;fontStyle=0;childLayout=stackLayout;horizontal=1;startSize=30;horizontalStack=0;resizeParent=1;resizeParentMax=0;resizeLast=0;collapsible=1;marginBottom=0;whiteSpace=wrap;html=1;" vertex="1" parent="1">
          <mxGeometry x="-340" y="-960" width="140" height="250" as="geometry" />
        </mxCell>
        <mxCell id="FwLdbJFnqaRyB9DGUgpO-40" value="ID đơn hàng&lt;div&gt;ID Khách hàng&lt;/div&gt;&lt;div&gt;Trạng thái&amp;nbsp;&lt;/div&gt;&lt;div&gt;Tổng tiền&lt;/div&gt;&lt;div&gt;ID khuyến mãi&lt;/div&gt;&lt;div&gt;Ngày đặt hàng&lt;/div&gt;&lt;div&gt;Phương thức thanh toán&lt;/div&gt;" style="text;strokeColor=none;fillColor=none;align=left;verticalAlign=middle;spacingLeft=4;spacingRight=4;overflow=hidden;points=[[0,0.5],[1,0.5]];portConstraint=eastwest;rotatable=0;whiteSpace=wrap;html=1;" vertex="1" parent="FwLdbJFnqaRyB9DGUgpO-39">
          <mxGeometry y="30" width="140" height="220" as="geometry" />
        </mxCell>
        <mxCell id="FwLdbJFnqaRyB9DGUgpO-43" value="Chi tết đơn hàng" style="swimlane;fontStyle=0;childLayout=stackLayout;horizontal=1;startSize=30;horizontalStack=0;resizeParent=1;resizeParentMax=0;resizeLast=0;collapsible=1;marginBottom=0;whiteSpace=wrap;html=1;" vertex="1" parent="1">
          <mxGeometry x="-655" y="-852" width="140" height="150" as="geometry" />
        </mxCell>
        <mxCell id="FwLdbJFnqaRyB9DGUgpO-44" value="&lt;blockquote style=&quot;margin: 0 0 0 40px; border: none; padding: 0px;&quot;&gt;Mã chi tiết&lt;/blockquote&gt;&lt;blockquote style=&quot;margin: 0 0 0 40px; border: none; padding: 0px;&quot;&gt;&lt;span style=&quot;background-color: initial;&quot;&gt;ID Đơn hàng&amp;nbsp;&lt;/span&gt;&lt;/blockquote&gt;&lt;blockquote style=&quot;margin: 0 0 0 40px; border: none; padding: 0px;&quot;&gt;&lt;span style=&quot;background-color: initial;&quot;&gt;ID Sản Phẩm&lt;/span&gt;&lt;/blockquote&gt;&lt;blockquote style=&quot;margin: 0 0 0 40px; border: none; padding: 0px;&quot;&gt;Số lượng&lt;/blockquote&gt;&lt;blockquote style=&quot;margin: 0 0 0 40px; border: none; padding: 0px;&quot;&gt;Giá&lt;/blockquote&gt;" style="text;strokeColor=none;fillColor=none;align=left;verticalAlign=middle;spacingLeft=4;spacingRight=4;overflow=hidden;points=[[0,0.5],[1,0.5]];portConstraint=eastwest;rotatable=0;whiteSpace=wrap;html=1;" vertex="1" parent="FwLdbJFnqaRyB9DGUgpO-43">
          <mxGeometry y="30" width="140" height="120" as="geometry" />
        </mxCell>
        <mxCell id="FwLdbJFnqaRyB9DGUgpO-47" value="Giỏ hàng" style="swimlane;fontStyle=0;childLayout=stackLayout;horizontal=1;startSize=30;horizontalStack=0;resizeParent=1;resizeParentMax=0;resizeLast=0;collapsible=1;marginBottom=0;whiteSpace=wrap;html=1;" vertex="1" parent="1">
          <mxGeometry x="71" y="-600" width="140" height="160" as="geometry" />
        </mxCell>
        <mxCell id="FwLdbJFnqaRyB9DGUgpO-48" value="&lt;div&gt;ID&lt;/div&gt;ID Khách hàng&lt;div&gt;ID Sản phẩm&lt;/div&gt;&lt;div&gt;Số lượng&lt;/div&gt;" style="text;strokeColor=none;fillColor=none;align=left;verticalAlign=middle;spacingLeft=4;spacingRight=4;overflow=hidden;points=[[0,0.5],[1,0.5]];portConstraint=eastwest;rotatable=0;whiteSpace=wrap;html=1;" vertex="1" parent="FwLdbJFnqaRyB9DGUgpO-47">
          <mxGeometry y="30" width="140" height="130" as="geometry" />
        </mxCell>
        <mxCell id="RAPLYx_h_htcPJ6WOV8Q-5" value="Đánh giá sản phẩm" style="swimlane;fontStyle=0;childLayout=stackLayout;horizontal=1;startSize=30;horizontalStack=0;resizeParent=1;resizeParentMax=0;resizeLast=0;collapsible=1;marginBottom=0;whiteSpace=wrap;html=1;" vertex="1" parent="1">
          <mxGeometry x="-375" y="-1940" width="140" height="230" as="geometry" />
        </mxCell>
        <mxCell id="RAPLYx_h_htcPJ6WOV8Q-6" value="&lt;code&gt;ID Đánh giá&lt;/code&gt;&lt;div&gt;&lt;code&gt;ID Sản phẩm&lt;/code&gt;&lt;/div&gt;&lt;div&gt;&lt;code style=&quot;background-color: initial;&quot;&gt;ID Khách hàng&lt;/code&gt;&lt;/div&gt;&lt;div&gt;&lt;code&gt;Số sao&lt;/code&gt;&lt;/div&gt;&lt;div&gt;&lt;code style=&quot;background-color: initial;&quot;&gt;Bình luận&lt;/code&gt;&lt;/div&gt;&lt;div&gt;&lt;code&gt;Ngày đánh giá&lt;/code&gt;&lt;/div&gt;" style="text;strokeColor=none;fillColor=none;align=left;verticalAlign=middle;spacingLeft=4;spacingRight=4;overflow=hidden;points=[[0,0.5],[1,0.5]];portConstraint=eastwest;rotatable=0;whiteSpace=wrap;html=1;" vertex="1" parent="RAPLYx_h_htcPJ6WOV8Q-5">
          <mxGeometry y="30" width="140" height="200" as="geometry" />
        </mxCell>
        <mxCell id="RAPLYx_h_htcPJ6WOV8Q-9" value="Khuyến mãi" style="swimlane;fontStyle=0;childLayout=stackLayout;horizontal=1;startSize=30;horizontalStack=0;resizeParent=1;resizeParentMax=0;resizeLast=0;collapsible=1;marginBottom=0;whiteSpace=wrap;html=1;" vertex="1" parent="1">
          <mxGeometry x="-1040" y="-1905" width="140" height="160" as="geometry" />
        </mxCell>
        <mxCell id="RAPLYx_h_htcPJ6WOV8Q-10" value="&lt;code&gt;ID Khuyến mãi&lt;/code&gt;&lt;div&gt;&lt;code&gt;Tên chương trình&lt;/code&gt;&lt;/div&gt;&lt;div&gt;&lt;code&gt;Ngày bắt đầu&lt;/code&gt;&lt;/div&gt;&lt;div&gt;&lt;code&gt;Ngày kết thúc&lt;/code&gt;&lt;/div&gt;&lt;div&gt;&lt;code style=&quot;background-color: initial;&quot;&gt;Chiết khấu&lt;/code&gt;&lt;/div&gt;&lt;div&gt;&lt;code style=&quot;background-color: initial;&quot;&gt;Mô tả&lt;/code&gt;&lt;/div&gt;" style="text;strokeColor=none;fillColor=none;align=left;verticalAlign=middle;spacingLeft=4;spacingRight=4;overflow=hidden;points=[[0,0.5],[1,0.5]];portConstraint=eastwest;rotatable=0;whiteSpace=wrap;html=1;" vertex="1" parent="RAPLYx_h_htcPJ6WOV8Q-9">
          <mxGeometry y="30" width="140" height="130" as="geometry" />
        </mxCell>
        <mxCell id="RAPLYx_h_htcPJ6WOV8Q-13" value="Sản phẩm khuyến mãi" style="swimlane;fontStyle=0;childLayout=stackLayout;horizontal=1;startSize=30;horizontalStack=0;resizeParent=1;resizeParentMax=0;resizeLast=0;collapsible=1;marginBottom=0;whiteSpace=wrap;html=1;" vertex="1" parent="1">
          <mxGeometry x="-1040" y="-1032" width="140" height="60" as="geometry" />
        </mxCell>
        <mxCell id="RAPLYx_h_htcPJ6WOV8Q-14" value="ID khuyến mãi&lt;div&gt;ID sản phẩm&lt;/div&gt;" style="text;strokeColor=none;fillColor=none;align=left;verticalAlign=middle;spacingLeft=4;spacingRight=4;overflow=hidden;points=[[0,0.5],[1,0.5]];portConstraint=eastwest;rotatable=0;whiteSpace=wrap;html=1;" vertex="1" parent="RAPLYx_h_htcPJ6WOV8Q-13">
          <mxGeometry y="30" width="140" height="30" as="geometry" />
        </mxCell>
        <mxCell id="RAPLYx_h_htcPJ6WOV8Q-17" value="Vận chuyển&amp;nbsp;" style="swimlane;fontStyle=0;childLayout=stackLayout;horizontal=1;startSize=30;horizontalStack=0;resizeParent=1;resizeParentMax=0;resizeLast=0;collapsible=1;marginBottom=0;whiteSpace=wrap;html=1;" vertex="1" parent="1">
          <mxGeometry x="390" y="-550" width="170" height="220" as="geometry" />
        </mxCell>
        <mxCell id="RAPLYx_h_htcPJ6WOV8Q-18" value="&lt;code&gt;ID vận chuyển&lt;/code&gt;&lt;div&gt;&lt;code&gt;ID Đơn hàng&lt;/code&gt;&lt;div&gt;&lt;font face=&quot;monospace&quot;&gt;Dia Chi&lt;/font&gt;&lt;/div&gt;&lt;/div&gt;&lt;div&gt;&lt;font face=&quot;monospace&quot;&gt;NgayVanChuyen&lt;br&gt;TrangThai&lt;br&gt;&lt;br&gt;&lt;/font&gt;&lt;/div&gt;" style="text;strokeColor=none;fillColor=none;align=left;verticalAlign=middle;spacingLeft=4;spacingRight=4;overflow=hidden;points=[[0,0.5],[1,0.5]];portConstraint=eastwest;rotatable=0;whiteSpace=wrap;html=1;" vertex="1" parent="RAPLYx_h_htcPJ6WOV8Q-17">
          <mxGeometry y="30" width="170" height="190" as="geometry" />
        </mxCell>
        <mxCell id="11JsRcjSmpxY1BiysFIB-1" value="GIỐNG CÁ KOI" style="swimlane;fontStyle=0;childLayout=stackLayout;horizontal=1;startSize=30;horizontalStack=0;resizeParent=1;resizeParentMax=0;resizeLast=0;collapsible=1;marginBottom=0;whiteSpace=wrap;html=1;" vertex="1" parent="1">
          <mxGeometry x="780" y="-752" width="140" height="180" as="geometry" />
        </mxCell>
        <mxCell id="11JsRcjSmpxY1BiysFIB-3" value="&lt;div&gt;ID&lt;/div&gt;Tên giống&lt;div&gt;Màu sắc&amp;nbsp;&lt;/div&gt;&lt;div&gt;Kích thước&lt;/div&gt;&lt;div&gt;IDCaKoi&lt;/div&gt;&lt;div&gt;Nhiệt độ sống&lt;/div&gt;&lt;div&gt;Yêu cầu nước&lt;/div&gt;&lt;div&gt;Ý Nghĩa&amp;nbsp;&lt;/div&gt;&lt;div&gt;Gía trị kinh tế&lt;/div&gt;&lt;div&gt;&lt;br&gt;&lt;/div&gt;" style="text;strokeColor=none;fillColor=none;align=left;verticalAlign=middle;spacingLeft=4;spacingRight=4;overflow=hidden;points=[[0,0.5],[1,0.5]];portConstraint=eastwest;rotatable=0;whiteSpace=wrap;html=1;" vertex="1" parent="11JsRcjSmpxY1BiysFIB-1">
          <mxGeometry y="30" width="140" height="150" as="geometry" />
        </mxCell>
        <mxCell id="11JsRcjSmpxY1BiysFIB-5" value="Khuyến mãi" style="swimlane;fontStyle=0;childLayout=stackLayout;horizontal=1;startSize=40;horizontalStack=0;resizeParent=1;resizeParentMax=0;resizeLast=0;collapsible=1;marginBottom=0;whiteSpace=wrap;html=1;" vertex="1" parent="1">
          <mxGeometry x="-715" y="-1124" width="140" height="210" as="geometry" />
        </mxCell>
        <mxCell id="11JsRcjSmpxY1BiysFIB-6" value="ID Khuyến mãi&lt;div&gt;Tên chương trình&lt;/div&gt;&lt;div&gt;&lt;span style=&quot;background-color: initial;&quot;&gt;Ngày bắt đầu&lt;/span&gt;&lt;/div&gt;&lt;div&gt;Ngày kết thúc&lt;/div&gt;&lt;div&gt;Chiết Khấu&lt;/div&gt;&lt;div&gt;Mô tả&lt;/div&gt;" style="text;strokeColor=none;fillColor=none;align=left;verticalAlign=middle;spacingLeft=4;spacingRight=4;overflow=hidden;points=[[0,0.5],[1,0.5]];portConstraint=eastwest;rotatable=0;whiteSpace=wrap;html=1;" vertex="1" parent="11JsRcjSmpxY1BiysFIB-5">
          <mxGeometry y="40" width="140" height="170" as="geometry" />
        </mxCell>
        <mxCell id="11JsRcjSmpxY1BiysFIB-13" value="Điểm tích lũy" style="swimlane;fontStyle=0;childLayout=stackLayout;horizontal=1;startSize=30;horizontalStack=0;resizeParent=1;resizeParentMax=0;resizeLast=0;collapsible=1;marginBottom=0;whiteSpace=wrap;html=1;" vertex="1" parent="1">
          <mxGeometry x="230" y="-1329" width="140" height="160" as="geometry" />
        </mxCell>
        <mxCell id="11JsRcjSmpxY1BiysFIB-14" value="ID Điểm tích lũy&lt;div&gt;ID Khách hàng&lt;/div&gt;&lt;div&gt;Số điểm&lt;/div&gt;&lt;div&gt;Ngày tích điểm&lt;/div&gt;&lt;div&gt;Mô tả&lt;/div&gt;" style="text;strokeColor=none;fillColor=none;align=left;verticalAlign=middle;spacingLeft=4;spacingRight=4;overflow=hidden;points=[[0,0.5],[1,0.5]];portConstraint=eastwest;rotatable=0;whiteSpace=wrap;html=1;" vertex="1" parent="11JsRcjSmpxY1BiysFIB-13">
          <mxGeometry y="30" width="140" height="130" as="geometry" />
        </mxCell>
        <mxCell id="11JsRcjSmpxY1BiysFIB-17" value="Lịch sử sử dụng điểm" style="swimlane;fontStyle=0;childLayout=stackLayout;horizontal=1;startSize=30;horizontalStack=0;resizeParent=1;resizeParentMax=0;resizeLast=0;collapsible=1;marginBottom=0;whiteSpace=wrap;html=1;" vertex="1" parent="1">
          <mxGeometry x="-100" y="-1329" width="140" height="180" as="geometry" />
        </mxCell>
        <mxCell id="11JsRcjSmpxY1BiysFIB-18" value="ID Lịch sử&lt;div&gt;ID Khách hàng&lt;/div&gt;&lt;div&gt;Số điểm đã sử dụng&lt;/div&gt;&lt;div&gt;Mô tả&lt;/div&gt;" style="text;strokeColor=none;fillColor=none;align=left;verticalAlign=middle;spacingLeft=4;spacingRight=4;overflow=hidden;points=[[0,0.5],[1,0.5]];portConstraint=eastwest;rotatable=0;whiteSpace=wrap;html=1;" vertex="1" parent="11JsRcjSmpxY1BiysFIB-17">
          <mxGeometry y="30" width="140" height="150" as="geometry" />
        </mxCell>
        <mxCell id="0sxjf98X4m5t_LvyUhBg-2" value="1" style="text;html=1;align=center;verticalAlign=middle;resizable=0;points=[];autosize=1;strokeColor=none;fillColor=none;" vertex="1" parent="1">
          <mxGeometry x="190" y="-865" width="30" height="30" as="geometry" />
        </mxCell>
        <mxCell id="0sxjf98X4m5t_LvyUhBg-3" value="n" style="text;html=1;align=center;verticalAlign=middle;resizable=0;points=[];autosize=1;strokeColor=none;fillColor=none;" vertex="1" parent="1">
          <mxGeometry x="280" y="-1169" width="30" height="30" as="geometry" />
        </mxCell>
        <mxCell id="0sxjf98X4m5t_LvyUhBg-4" value="" style="endArrow=none;html=1;rounded=0;entryX=0.362;entryY=1.013;entryDx=0;entryDy=0;entryPerimeter=0;exitX=1.014;exitY=0.464;exitDx=0;exitDy=0;exitPerimeter=0;" edge="1" parent="1" source="FwLdbJFnqaRyB9DGUgpO-13" target="11JsRcjSmpxY1BiysFIB-14">
          <mxGeometry width="50" height="50" relative="1" as="geometry">
            <mxPoint x="230" y="-930" as="sourcePoint" />
            <mxPoint x="280" y="-980" as="targetPoint" />
            <Array as="points">
              <mxPoint x="280" y="-840" />
            </Array>
          </mxGeometry>
        </mxCell>
        <mxCell id="0sxjf98X4m5t_LvyUhBg-5" value="" style="endArrow=none;html=1;rounded=0;entryX=0.498;entryY=1.003;entryDx=0;entryDy=0;entryPerimeter=0;exitX=0;exitY=0.5;exitDx=0;exitDy=0;" edge="1" parent="1" source="FwLdbJFnqaRyB9DGUgpO-13" target="11JsRcjSmpxY1BiysFIB-18">
          <mxGeometry width="50" height="50" relative="1" as="geometry">
            <mxPoint x="212" y="-828" as="sourcePoint" />
            <mxPoint x="291" y="-1157" as="targetPoint" />
            <Array as="points">
              <mxPoint x="-30" y="-830" />
            </Array>
          </mxGeometry>
        </mxCell>
        <mxCell id="0sxjf98X4m5t_LvyUhBg-6" value="" style="endArrow=none;html=1;rounded=0;entryX=0.045;entryY=0.803;entryDx=0;entryDy=0;entryPerimeter=0;exitX=0.969;exitY=0.776;exitDx=0;exitDy=0;exitPerimeter=0;" edge="1" parent="1" source="FwLdbJFnqaRyB9DGUgpO-40" target="FwLdbJFnqaRyB9DGUgpO-13">
          <mxGeometry width="50" height="50" relative="1" as="geometry">
            <mxPoint x="-50" y="-700" as="sourcePoint" />
            <mxPoint y="-750" as="targetPoint" />
          </mxGeometry>
        </mxCell>
        <mxCell id="0sxjf98X4m5t_LvyUhBg-7" value="" style="endArrow=none;html=1;rounded=0;entryX=-0.012;entryY=0.788;entryDx=0;entryDy=0;exitX=1;exitY=0.5;exitDx=0;exitDy=0;entryPerimeter=0;" edge="1" parent="1" source="FwLdbJFnqaRyB9DGUgpO-44" target="FwLdbJFnqaRyB9DGUgpO-40">
          <mxGeometry width="50" height="50" relative="1" as="geometry">
            <mxPoint x="-194" y="-749" as="sourcePoint" />
            <mxPoint x="76" y="-753" as="targetPoint" />
          </mxGeometry>
        </mxCell>
        <mxCell id="0sxjf98X4m5t_LvyUhBg-8" value="1" style="text;html=1;align=center;verticalAlign=middle;resizable=0;points=[];autosize=1;strokeColor=none;fillColor=none;" vertex="1" parent="1">
          <mxGeometry x="-375" y="-782" width="30" height="30" as="geometry" />
        </mxCell>
        <mxCell id="0sxjf98X4m5t_LvyUhBg-9" value="n" style="text;html=1;align=center;verticalAlign=middle;resizable=0;points=[];autosize=1;strokeColor=none;fillColor=none;" vertex="1" parent="1">
          <mxGeometry x="-515" y="-782" width="30" height="30" as="geometry" />
        </mxCell>
        <mxCell id="0sxjf98X4m5t_LvyUhBg-10" value="1" style="text;html=1;align=center;verticalAlign=middle;resizable=0;points=[];autosize=1;strokeColor=none;fillColor=none;" vertex="1" parent="1">
          <mxGeometry x="25" y="-792" width="30" height="30" as="geometry" />
        </mxCell>
        <mxCell id="0sxjf98X4m5t_LvyUhBg-11" value="n" style="text;html=1;align=center;verticalAlign=middle;resizable=0;points=[];autosize=1;strokeColor=none;fillColor=none;" vertex="1" parent="1">
          <mxGeometry x="-195" y="-792" width="30" height="30" as="geometry" />
        </mxCell>
        <mxCell id="0sxjf98X4m5t_LvyUhBg-12" value="1" style="text;html=1;align=center;verticalAlign=middle;resizable=0;points=[];autosize=1;strokeColor=none;fillColor=none;" vertex="1" parent="1">
          <mxGeometry x="35" y="-862" width="30" height="30" as="geometry" />
        </mxCell>
        <mxCell id="0sxjf98X4m5t_LvyUhBg-13" value="n" style="text;html=1;align=center;verticalAlign=middle;resizable=0;points=[];autosize=1;strokeColor=none;fillColor=none;" vertex="1" parent="1">
          <mxGeometry x="-25" y="-1152" width="30" height="30" as="geometry" />
        </mxCell>
        <mxCell id="0sxjf98X4m5t_LvyUhBg-14" value="" style="endArrow=none;html=1;rounded=0;entryX=0.031;entryY=0.252;entryDx=0;entryDy=0;entryPerimeter=0;exitX=1.012;exitY=0.2;exitDx=0;exitDy=0;exitPerimeter=0;" edge="1" parent="1" source="FwLdbJFnqaRyB9DGUgpO-34" target="FwLdbJFnqaRyB9DGUgpO-36">
          <mxGeometry width="50" height="50" relative="1" as="geometry">
            <mxPoint x="-800" y="-1343" as="sourcePoint" />
            <mxPoint x="-750" y="-1393" as="targetPoint" />
          </mxGeometry>
        </mxCell>
        <mxCell id="0sxjf98X4m5t_LvyUhBg-15" value="1" style="text;html=1;align=center;verticalAlign=middle;resizable=0;points=[];autosize=1;strokeColor=none;fillColor=none;" vertex="1" parent="1">
          <mxGeometry x="-835" y="-1516" width="30" height="30" as="geometry" />
        </mxCell>
        <mxCell id="0sxjf98X4m5t_LvyUhBg-16" value="n" style="text;html=1;align=center;verticalAlign=middle;resizable=0;points=[];autosize=1;strokeColor=none;fillColor=none;" vertex="1" parent="1">
          <mxGeometry x="-735" y="-1516" width="30" height="30" as="geometry" />
        </mxCell>
        <mxCell id="0sxjf98X4m5t_LvyUhBg-17" value="" style="endArrow=none;html=1;rounded=0;entryX=0.5;entryY=0;entryDx=0;entryDy=0;exitX=0.46;exitY=1.01;exitDx=0;exitDy=0;exitPerimeter=0;" edge="1" parent="1" source="FwLdbJFnqaRyB9DGUgpO-36" target="11JsRcjSmpxY1BiysFIB-5">
          <mxGeometry width="50" height="50" relative="1" as="geometry">
            <mxPoint x="-910" y="-1174" as="sourcePoint" />
            <mxPoint x="-860" y="-1224" as="targetPoint" />
          </mxGeometry>
        </mxCell>
        <mxCell id="0sxjf98X4m5t_LvyUhBg-18" value="n" style="text;html=1;align=center;verticalAlign=middle;resizable=0;points=[];autosize=1;strokeColor=none;fillColor=none;" vertex="1" parent="1">
          <mxGeometry x="-645" y="-1166" width="30" height="30" as="geometry" />
        </mxCell>
        <mxCell id="0sxjf98X4m5t_LvyUhBg-19" value="n" style="text;html=1;align=center;verticalAlign=middle;resizable=0;points=[];autosize=1;strokeColor=none;fillColor=none;" vertex="1" parent="1">
          <mxGeometry x="-645" y="-1266" width="30" height="30" as="geometry" />
        </mxCell>
        <mxCell id="0sxjf98X4m5t_LvyUhBg-21" value="" style="endArrow=none;html=1;rounded=0;entryX=0.598;entryY=1.009;entryDx=0;entryDy=0;entryPerimeter=0;exitX=0.5;exitY=0;exitDx=0;exitDy=0;" edge="1" parent="1" source="FwLdbJFnqaRyB9DGUgpO-47" target="FwLdbJFnqaRyB9DGUgpO-13">
          <mxGeometry width="50" height="50" relative="1" as="geometry">
            <mxPoint x="-270" y="-530" as="sourcePoint" />
            <mxPoint x="-220" y="-580" as="targetPoint" />
          </mxGeometry>
        </mxCell>
        <mxCell id="0sxjf98X4m5t_LvyUhBg-22" value="1" style="text;html=1;align=center;verticalAlign=middle;resizable=0;points=[];autosize=1;strokeColor=none;fillColor=none;" vertex="1" parent="1">
          <mxGeometry x="135" y="-722" width="30" height="30" as="geometry" />
        </mxCell>
        <mxCell id="0sxjf98X4m5t_LvyUhBg-23" value="n" style="text;html=1;align=center;verticalAlign=middle;resizable=0;points=[];autosize=1;strokeColor=none;fillColor=none;" vertex="1" parent="1">
          <mxGeometry x="135" y="-632" width="30" height="30" as="geometry" />
        </mxCell>
        <mxCell id="0sxjf98X4m5t_LvyUhBg-24" value="" style="endArrow=none;html=1;rounded=0;entryX=0.5;entryY=0;entryDx=0;entryDy=0;" edge="1" parent="1" source="FwLdbJFnqaRyB9DGUgpO-36" target="FwLdbJFnqaRyB9DGUgpO-39">
          <mxGeometry width="50" height="50" relative="1" as="geometry">
            <mxPoint x="-400" y="-1330" as="sourcePoint" />
            <mxPoint x="-350" y="-1380" as="targetPoint" />
            <Array as="points">
              <mxPoint x="-260" y="-1420" />
            </Array>
          </mxGeometry>
        </mxCell>
        <mxCell id="0sxjf98X4m5t_LvyUhBg-25" value="n" style="text;html=1;align=center;verticalAlign=middle;resizable=0;points=[];autosize=1;strokeColor=none;fillColor=none;" vertex="1" parent="1">
          <mxGeometry x="-275" y="-1002" width="30" height="30" as="geometry" />
        </mxCell>
        <mxCell id="0sxjf98X4m5t_LvyUhBg-26" value="n" style="text;html=1;align=center;verticalAlign=middle;resizable=0;points=[];autosize=1;strokeColor=none;fillColor=none;" vertex="1" parent="1">
          <mxGeometry x="-565" y="-1462" width="30" height="30" as="geometry" />
        </mxCell>
        <mxCell id="0sxjf98X4m5t_LvyUhBg-28" value="" style="endArrow=none;html=1;rounded=0;entryX=0.004;entryY=0.011;entryDx=0;entryDy=0;entryPerimeter=0;exitX=0.995;exitY=0.827;exitDx=0;exitDy=0;exitPerimeter=0;" edge="1" parent="1" source="FwLdbJFnqaRyB9DGUgpO-13" target="FwLdbJFnqaRyB9DGUgpO-26">
          <mxGeometry width="50" height="50" relative="1" as="geometry">
            <mxPoint x="-320" y="-590" as="sourcePoint" />
            <mxPoint x="-270" y="-640" as="targetPoint" />
          </mxGeometry>
        </mxCell>
        <mxCell id="0sxjf98X4m5t_LvyUhBg-29" value="1" style="text;html=1;align=center;verticalAlign=middle;resizable=0;points=[];autosize=1;strokeColor=none;fillColor=none;" vertex="1" parent="1">
          <mxGeometry x="205" y="-792" width="30" height="30" as="geometry" />
        </mxCell>
        <mxCell id="0sxjf98X4m5t_LvyUhBg-30" value="n" style="text;html=1;align=center;verticalAlign=middle;resizable=0;points=[];autosize=1;strokeColor=none;fillColor=none;" vertex="1" parent="1">
          <mxGeometry x="375" y="-792" width="30" height="30" as="geometry" />
        </mxCell>
        <mxCell id="0sxjf98X4m5t_LvyUhBg-31" value="" style="endArrow=none;html=1;rounded=0;entryX=0.472;entryY=1.025;entryDx=0;entryDy=0;entryPerimeter=0;exitX=0.5;exitY=0;exitDx=0;exitDy=0;" edge="1" parent="1" source="FwLdbJFnqaRyB9DGUgpO-35" target="FwLdbJFnqaRyB9DGUgpO-20">
          <mxGeometry width="50" height="50" relative="1" as="geometry">
            <mxPoint x="-720" y="-1630" as="sourcePoint" />
            <mxPoint x="-670" y="-1680" as="targetPoint" />
          </mxGeometry>
        </mxCell>
        <mxCell id="0sxjf98X4m5t_LvyUhBg-32" value="1" style="text;html=1;align=center;verticalAlign=middle;resizable=0;points=[];autosize=1;strokeColor=none;fillColor=none;" vertex="1" parent="1">
          <mxGeometry x="-10" y="-1254" width="30" height="30" as="geometry" />
        </mxCell>
        <mxCell id="0sxjf98X4m5t_LvyUhBg-33" value="n" style="text;html=1;align=center;verticalAlign=middle;resizable=0;points=[];autosize=1;strokeColor=none;fillColor=none;" vertex="1" parent="1">
          <mxGeometry x="-635" y="-1812" width="30" height="30" as="geometry" />
        </mxCell>
        <mxCell id="0sxjf98X4m5t_LvyUhBg-34" value="" style="endArrow=none;html=1;rounded=0;exitX=1;exitY=0.138;exitDx=0;exitDy=0;exitPerimeter=0;entryX=0.388;entryY=0.993;entryDx=0;entryDy=0;entryPerimeter=0;" edge="1" parent="1" source="FwLdbJFnqaRyB9DGUgpO-36" target="RAPLYx_h_htcPJ6WOV8Q-6">
          <mxGeometry width="50" height="50" relative="1" as="geometry">
            <mxPoint x="-500" y="-1510" as="sourcePoint" />
            <mxPoint x="-450" y="-1560" as="targetPoint" />
            <Array as="points">
              <mxPoint x="-320" y="-1518" />
            </Array>
          </mxGeometry>
        </mxCell>
        <mxCell id="0sxjf98X4m5t_LvyUhBg-35" value="1" style="text;html=1;align=center;verticalAlign=middle;resizable=0;points=[];autosize=1;strokeColor=none;fillColor=none;" vertex="1" parent="1">
          <mxGeometry x="-565" y="-1542" width="30" height="30" as="geometry" />
        </mxCell>
        <mxCell id="0sxjf98X4m5t_LvyUhBg-36" value="n" style="text;html=1;align=center;verticalAlign=middle;resizable=0;points=[];autosize=1;strokeColor=none;fillColor=none;" vertex="1" parent="1">
          <mxGeometry x="-315" y="-1702" width="30" height="30" as="geometry" />
        </mxCell>
        <mxCell id="0sxjf98X4m5t_LvyUhBg-37" value="" style="endArrow=none;html=1;rounded=0;entryX=0.01;entryY=-0.014;entryDx=0;entryDy=0;entryPerimeter=0;exitX=0.519;exitY=1.033;exitDx=0;exitDy=0;exitPerimeter=0;" edge="1" parent="1" source="RAPLYx_h_htcPJ6WOV8Q-10" target="FwLdbJFnqaRyB9DGUgpO-36">
          <mxGeometry width="50" height="50" relative="1" as="geometry">
            <mxPoint x="-810" y="-1650" as="sourcePoint" />
            <mxPoint x="-760" y="-1700" as="targetPoint" />
            <Array as="points">
              <mxPoint x="-970" y="-1560" />
            </Array>
          </mxGeometry>
        </mxCell>
        <mxCell id="0sxjf98X4m5t_LvyUhBg-38" value="n" style="text;html=1;align=center;verticalAlign=middle;resizable=0;points=[];autosize=1;strokeColor=none;fillColor=none;" vertex="1" parent="1">
          <mxGeometry x="-755" y="-1602" width="30" height="30" as="geometry" />
        </mxCell>
        <mxCell id="0sxjf98X4m5t_LvyUhBg-39" value="1" style="text;html=1;align=center;verticalAlign=middle;resizable=0;points=[];autosize=1;strokeColor=none;fillColor=none;" vertex="1" parent="1">
          <mxGeometry x="-955" y="-1742" width="30" height="30" as="geometry" />
        </mxCell>
        <mxCell id="0sxjf98X4m5t_LvyUhBg-41" value="" style="endArrow=none;html=1;rounded=0;entryX=0.008;entryY=0.035;entryDx=0;entryDy=0;entryPerimeter=0;" edge="1" parent="1" source="FwLdbJFnqaRyB9DGUgpO-48" target="RAPLYx_h_htcPJ6WOV8Q-18">
          <mxGeometry width="50" height="50" relative="1" as="geometry">
            <mxPoint x="160" y="-390" as="sourcePoint" />
            <mxPoint x="210" y="-440" as="targetPoint" />
          </mxGeometry>
        </mxCell>
        <mxCell id="0sxjf98X4m5t_LvyUhBg-42" value="1" style="text;html=1;align=center;verticalAlign=middle;resizable=0;points=[];autosize=1;strokeColor=none;fillColor=none;" vertex="1" parent="1">
          <mxGeometry x="215" y="-552" width="30" height="30" as="geometry" />
        </mxCell>
        <mxCell id="0sxjf98X4m5t_LvyUhBg-44" value="n" style="text;html=1;align=center;verticalAlign=middle;resizable=0;points=[];autosize=1;strokeColor=none;fillColor=none;" vertex="1" parent="1">
          <mxGeometry x="355" y="-542" width="30" height="30" as="geometry" />
        </mxCell>
        <mxCell id="0sxjf98X4m5t_LvyUhBg-45" value="1" style="text;html=1;align=center;verticalAlign=middle;resizable=0;points=[];autosize=1;strokeColor=none;fillColor=none;" vertex="1" parent="1">
          <mxGeometry x="-645" y="-1612" width="30" height="30" as="geometry" />
        </mxCell>
        <mxCell id="0sxjf98X4m5t_LvyUhBg-46" value="" style="endArrow=none;html=1;rounded=0;entryX=0;entryY=0.5;entryDx=0;entryDy=0;exitX=0.948;exitY=-0.005;exitDx=0;exitDy=0;exitPerimeter=0;" edge="1" parent="1" source="RAPLYx_h_htcPJ6WOV8Q-14" target="11JsRcjSmpxY1BiysFIB-6">
          <mxGeometry width="50" height="50" relative="1" as="geometry">
            <mxPoint x="-820" y="-920" as="sourcePoint" />
            <mxPoint x="-770" y="-970" as="targetPoint" />
          </mxGeometry>
        </mxCell>
        <mxCell id="0sxjf98X4m5t_LvyUhBg-47" value="1" style="edgeLabel;html=1;align=center;verticalAlign=middle;resizable=0;points=[];" connectable="0" vertex="1" parent="0sxjf98X4m5t_LvyUhBg-46">
          <mxGeometry x="0.7087" y="7" relative="1" as="geometry">
            <mxPoint as="offset" />
          </mxGeometry>
        </mxCell>
        <mxCell id="0sxjf98X4m5t_LvyUhBg-48" value="n" style="text;html=1;align=center;verticalAlign=middle;resizable=0;points=[];autosize=1;strokeColor=none;fillColor=none;" vertex="1" parent="1">
          <mxGeometry x="-895" y="-1022" width="30" height="30" as="geometry" />
        </mxCell>
        <mxCell id="0sxjf98X4m5t_LvyUhBg-49" value="" style="endArrow=none;html=1;rounded=0;exitX=0.5;exitY=0;exitDx=0;exitDy=0;" edge="1" parent="1" source="FwLdbJFnqaRyB9DGUgpO-15" target="11JsRcjSmpxY1BiysFIB-3">
          <mxGeometry width="50" height="50" relative="1" as="geometry">
            <mxPoint x="840" y="-500" as="sourcePoint" />
            <mxPoint x="890" y="-550" as="targetPoint" />
          </mxGeometry>
        </mxCell>
        <mxCell id="0sxjf98X4m5t_LvyUhBg-50" value="1" style="text;html=1;align=center;verticalAlign=middle;resizable=0;points=[];autosize=1;strokeColor=none;fillColor=none;" vertex="1" parent="1">
          <mxGeometry x="855" y="-572" width="30" height="30" as="geometry" />
        </mxCell>
        <mxCell id="0sxjf98X4m5t_LvyUhBg-51" value="n" style="text;html=1;align=center;verticalAlign=middle;resizable=0;points=[];autosize=1;strokeColor=none;fillColor=none;" vertex="1" parent="1">
          <mxGeometry x="865" y="-472" width="30" height="30" as="geometry" />
        </mxCell>
      </root>
    </mxGraphModel>
  </diagram>
</mxfile>
